<svg width="19" height="20" viewBox="0 0 19 20" fill="none" xmlns="http://www.w3.org/2000/svg">
<path d="M11.2273 16.0454C14.106 16.9091 15.5454 17.7727 18.1363 17.7727C19 17.7727 19 18.1594 19 18.6363C19 19.1133 18.6133 19.5 18.1363 19.5H0.863672C0.386672 19.5 0 19.1133 0 18.6363C0 18.1594 3.57628e-07 17.7727 0.863672 17.7727C3.45458 17.7727 4.89397 16.9091 7.77271 16.0454V9.99997L0.863672 0.5H18.1363L11.2272 9.99997L11.2273 16.0454ZM10.7955 3.95453C10.08 3.95453 9.5 4.53451 9.5 5.24999C9.5 5.96541 10.08 6.54544 10.7955 6.54544C11.5109 6.54544 12.0909 5.96541 12.0909 5.24999C12.0909 4.53451 11.5109 3.95453 10.7955 3.95453Z" fill="#333333"/>
</svg>
