<svg width="24" height="24" viewBox="0 0 24 24" fill="none" xmlns="http://www.w3.org/2000/svg">
<path d="M22.0005 18.6406H2.0932C0.937594 18.6406 0.533203 19.5778 0.533203 20.7338V20.9424C0.533203 22.0988 1.47038 23.0356 2.62598 23.0356H21.4625C22.6181 23.0356 23.5553 22.0988 23.5553 20.9424V20.7338C23.5553 19.5778 23.1569 18.6406 22.0005 18.6406Z" fill="#333333"/>
<path d="M20.9615 17.5163C22.0345 17.5163 22.9044 16.8242 22.9044 15.9693V15.9243C22.9044 15.0701 22.0345 14.3772 20.9615 14.3772H3.47785C2.40526 14.3772 1.5354 15.0701 1.5354 15.9243V15.9693C1.5354 16.8242 2.40521 17.5163 3.47785 17.5163H20.9615Z" fill="#333333"/>
<path d="M1.95333 9.63375H22.1346C22.9022 9.63375 23.3454 9.21488 23.3454 8.41941C23.3454 8.14814 23.3211 8.27147 23.2761 8.00325C22.6564 4.29342 17.8653 0.964409 12.0446 0.964409C6.22308 0.964409 1.43194 4.29347 0.812257 8.00335H0.811882C0.766882 8.27152 0.742554 8.14824 0.742554 8.4195C0.742554 9.21492 1.18571 9.63375 1.95333 9.63375ZM18.4188 4.28246C18.7269 4.28246 18.9771 4.53258 18.9771 4.84069C18.9771 5.14875 18.7269 5.39892 18.4188 5.39892C18.1108 5.39892 17.8602 5.14875 17.8602 4.84069C17.8602 4.53258 18.1108 4.28246 18.4188 4.28246ZM15.628 2.46174C15.9361 2.46174 16.1859 2.71186 16.1859 3.0196C16.1859 3.32846 15.9361 3.57863 15.628 3.57863C15.3196 3.57863 15.0698 3.32846 15.0698 3.0196C15.0698 2.71186 15.3196 2.46174 15.628 2.46174ZM13.814 4.28246C14.1225 4.28246 14.3723 4.53258 14.3723 4.84069C14.3723 5.14875 14.1225 5.39892 13.814 5.39892C13.506 5.39892 13.2558 5.14875 13.2558 4.84069C13.2558 4.53258 13.506 4.28246 13.814 4.28246ZM11.7209 1.77122C12.0293 1.77122 12.2791 2.02097 12.2791 2.32908C12.2791 2.63714 12.0293 2.88689 11.7209 2.88689C11.4128 2.88689 11.1626 2.63714 11.1626 2.32908C11.1626 2.02092 11.4128 1.77122 11.7209 1.77122ZM10.0465 4.14272C10.3546 4.14272 10.6048 4.39285 10.6048 4.70133C10.6048 5.00944 10.3546 5.25957 10.0465 5.25957C9.73843 5.25957 9.4883 5.00944 9.4883 4.70133C9.4883 4.39285 9.73843 4.14272 10.0465 4.14272ZM8.09316 2.46839C8.40123 2.46839 8.65135 2.71814 8.65135 3.02663C8.65135 3.33507 8.40123 3.58486 8.09316 3.58486C7.78463 3.58486 7.53493 3.33507 7.53493 3.02663C7.53493 2.71814 7.78463 2.46839 8.09316 2.46839ZM5.86018 4.14272C6.16866 4.14272 6.41883 4.39285 6.41883 4.70133C6.41883 5.00944 6.16871 5.25957 5.86018 5.25957C5.55212 5.25957 5.30232 5.00944 5.30232 4.70133C5.30237 4.39285 5.55212 4.14272 5.86018 4.14272Z" fill="#333333"/>
<path d="M23.3028 10.8622C23.057 10.8618 22.824 10.8994 22.6134 10.9695C22.429 11.0305 22.2635 11.1155 22.1194 11.2114C21.8673 11.3793 21.6802 11.5746 21.5248 11.7508C21.4081 11.8827 21.3083 12.006 21.2167 12.1098C21.0801 12.2671 20.9638 12.3756 20.8597 12.4382C20.8068 12.4688 20.7571 12.4918 20.698 12.5086C20.6388 12.5251 20.5692 12.5361 20.4764 12.5364C20.3687 12.5361 20.2924 12.5216 20.227 12.5001C20.1699 12.4813 20.1194 12.4554 20.065 12.4198C19.971 12.3584 19.8657 12.2581 19.7451 12.1203C19.6543 12.0178 19.5553 11.8957 19.4402 11.7633C19.2672 11.5676 19.055 11.3437 18.7559 11.1624C18.6071 11.072 18.4372 10.9949 18.2501 10.942C18.0637 10.8895 17.8618 10.8618 17.6504 10.8622C17.4049 10.8618 17.172 10.8993 16.9614 10.9694C16.777 11.0304 16.6114 11.1154 16.4674 11.2113C16.2149 11.3792 16.0282 11.5746 15.8727 11.7508C15.7557 11.8827 15.6562 12.006 15.5646 12.1097C15.4276 12.2671 15.3121 12.3755 15.2076 12.4381C15.1548 12.4687 15.105 12.4918 15.0459 12.5086C14.9872 12.525 14.9175 12.536 14.8247 12.5364C14.7167 12.536 14.6407 12.5215 14.5754 12.5C14.5178 12.4812 14.4674 12.4554 14.4129 12.4198C14.3194 12.3583 14.2145 12.2581 14.0935 12.1203C14.0026 12.0177 13.904 11.8956 13.7886 11.7641C13.6155 11.5675 13.4033 11.3436 13.1047 11.1624C12.9555 11.072 12.786 10.9949 12.5989 10.942C12.4125 10.8895 12.2101 10.8617 11.9992 10.8621C11.7537 10.8617 11.5208 10.8993 11.3106 10.9694C11.1262 11.0304 10.9602 11.1154 10.8161 11.2113C10.5636 11.3792 10.3769 11.5745 10.2211 11.7507C10.1048 11.8826 10.0054 12.006 9.91378 12.1097C9.77677 12.267 9.66052 12.3755 9.55636 12.4381C9.50395 12.4687 9.45422 12.4917 9.39511 12.5085C9.3352 12.525 9.2663 12.536 9.17353 12.5363C9.06544 12.536 8.98955 12.5215 8.92378 12.5C8.86701 12.4812 8.81616 12.4553 8.76253 12.4197C8.66817 12.3583 8.56369 12.258 8.44228 12.1202C8.35148 12.0177 8.25281 11.8956 8.13736 11.764C7.96472 11.5675 7.75214 11.3436 7.45345 11.1623C7.30472 11.0719 7.13442 10.9948 6.94809 10.9419C6.76134 10.8894 6.55936 10.8617 6.34795 10.8621C6.10252 10.8617 5.87002 10.8992 5.65898 10.9693C5.47458 11.0303 5.30939 11.1153 5.16534 11.2112C4.91288 11.3791 4.72612 11.5745 4.57036 11.7507C4.45364 11.8826 4.35427 12.0059 4.26305 12.1096C4.12603 12.267 4.00973 12.3754 3.906 12.438C3.85317 12.4686 3.80306 12.4917 3.74391 12.5085C3.68484 12.525 3.61552 12.5359 3.52275 12.5363C3.4147 12.5359 3.33877 12.5214 3.27338 12.4999C3.21619 12.4811 3.16575 12.4553 3.1117 12.4197C3.01777 12.3582 2.91244 12.2584 2.79183 12.1202C2.70103 12.0176 2.60236 11.8955 2.48691 11.764C2.31389 11.5674 2.10173 11.3444 1.803 11.1623C1.65427 11.0719 1.48434 10.9948 1.29764 10.9419C1.11094 10.8894 0.908953 10.8616 0.6975 10.862C0.312375 10.8622 0 11.1746 0 11.5598C0 11.945 0.312375 12.2574 0.697594 12.2574C0.805687 12.2574 0.881578 12.2723 0.946969 12.2938C1.00416 12.313 1.05464 12.338 1.10864 12.3741C1.20262 12.4359 1.30753 12.5353 1.42852 12.6731C1.51931 12.7757 1.61798 12.8986 1.73344 13.0301C1.9065 13.2263 2.11866 13.4498 2.41734 13.6318C2.56612 13.7222 2.73638 13.7989 2.9227 13.8514C3.10908 13.9039 3.31144 13.9316 3.52284 13.9316C3.76791 13.932 4.00083 13.8944 4.21144 13.8244C4.3958 13.7629 4.56141 13.6784 4.70508 13.5829C4.95797 13.4145 5.14467 13.2188 5.30053 13.0434C5.41678 12.9107 5.51658 12.7878 5.60784 12.6837C5.74523 12.5267 5.86069 12.4183 5.96484 12.356C6.01767 12.3247 6.06741 12.302 6.12694 12.2852C6.18567 12.2688 6.25491 12.2574 6.34809 12.2574C6.45619 12.2574 6.53208 12.2723 6.59747 12.2938C6.65466 12.313 6.70514 12.338 6.75956 12.3741C6.8535 12.4359 6.95841 12.5353 7.07902 12.6731C7.16981 12.7757 7.26886 12.8986 7.38394 13.0301C7.55737 13.2263 7.76916 13.4498 8.06822 13.6318C8.21695 13.7222 8.38688 13.7989 8.57358 13.8514C8.76033 13.9039 8.96231 13.9316 9.17372 13.9316C9.41878 13.932 9.65208 13.8944 9.86227 13.8244C10.0467 13.7629 10.2123 13.6784 10.3563 13.5829C10.6088 13.4145 10.7955 13.2188 10.951 13.0434C11.068 12.9107 11.1675 12.7878 11.259 12.6837C11.3961 12.5267 11.5119 12.4183 11.616 12.356C11.6685 12.3247 11.7186 12.302 11.7778 12.2852C11.8368 12.2688 11.9062 12.2574 11.9993 12.2574C12.1073 12.2574 12.1829 12.2723 12.2483 12.2938C12.3058 12.313 12.3563 12.338 12.4104 12.3741C12.5043 12.4359 12.6092 12.5353 12.7302 12.6731C12.8214 12.7757 12.9201 12.8986 13.0351 13.0301C13.2082 13.2263 13.4204 13.4498 13.7194 13.6318C13.8682 13.7222 14.0381 13.7989 14.2248 13.8514C14.4115 13.9039 14.6135 13.9316 14.8249 13.9316C15.07 13.932 15.3029 13.8944 15.5135 13.8244C15.6979 13.7629 15.8635 13.6784 16.0075 13.5829C16.26 13.4145 16.4471 13.2188 16.6022 13.0434C16.7188 12.9107 16.8187 12.7878 16.9099 12.6837C17.0469 12.5267 17.1631 12.4183 17.2677 12.356C17.3193 12.3247 17.3699 12.302 17.4289 12.2852C17.4881 12.2688 17.5573 12.2574 17.6505 12.2574C17.7582 12.2574 17.8342 12.2723 17.8999 12.2938C17.957 12.313 18.0079 12.338 18.0615 12.3741C18.1559 12.4359 18.2604 12.5353 18.3818 12.6731C18.4726 12.7757 18.5716 12.8986 18.6871 13.0301C18.8597 13.2266 19.0724 13.4498 19.371 13.6318C19.5198 13.7222 19.6897 13.7989 19.8764 13.8514C20.0632 13.9042 20.2651 13.932 20.4765 13.932C20.722 13.932 20.9553 13.8945 21.1651 13.8244C21.3495 13.7633 21.5151 13.6784 21.6591 13.5829C21.912 13.4145 22.0991 13.2188 22.2541 13.0434C22.3704 12.9111 22.4707 12.7882 22.5618 12.6837C22.6988 12.5267 22.8148 12.4183 22.9193 12.356C22.9713 12.3247 23.0214 12.302 23.0809 12.2856C23.1405 12.2688 23.2093 12.2574 23.3029 12.2574C23.6877 12.2574 24.0001 11.945 24.0001 11.5598C24 11.1746 23.6876 10.8622 23.3028 10.8622Z" fill="#333333"/>
</svg>
