<svg width="20" height="24" viewBox="0 0 20 24" fill="none" xmlns="http://www.w3.org/2000/svg">
<path d="M7.51402 9.46821C8.34918 9.46821 9.0262 8.79118 9.0262 7.95603C9.0262 7.12087 8.34918 6.44384 7.51402 6.44384C6.67886 6.44384 6.00183 7.12087 6.00183 7.95603C6.00183 8.79118 6.67886 9.46821 7.51402 9.46821Z" fill="#333333"/>
<path d="M9.99999 13.5515C9.16501 13.5515 8.48792 14.2286 8.48792 15.0638C8.48792 15.8993 9.16501 16.5764 9.99999 16.5764C10.8353 16.5764 11.5124 15.8993 11.5124 15.0638C11.5124 14.2286 10.8353 13.5515 9.99999 13.5515Z" fill="#333333"/>
<path d="M12.2777 11.5317C13.1128 11.5317 13.7899 10.8546 13.7899 10.0195C13.7899 9.18433 13.1128 8.5073 12.2777 8.5073C11.4425 8.5073 10.7655 9.18433 10.7655 10.0195C10.7655 10.8546 11.4425 11.5317 12.2777 11.5317Z" fill="#333333"/>
<path d="M18.8759 1.77174C16.0382 0.596066 13.0488 0 9.99073 0C6.94487 0 3.96166 0.595852 1.12404 1.77088C0.927556 1.85234 0.771484 2.00852 0.690027 2.205C0.608677 2.40148 0.608678 2.62233 0.690134 2.81881L1.97206 5.9116C1.97217 5.91202 1.9726 5.91245 1.97281 5.91288L9.25901 23.5056C9.38387 23.8068 9.67773 24 9.99939 24C10.0227 24 10.0461 23.9989 10.0695 23.9969C10.3742 23.9704 10.633 23.7737 10.7442 23.4964L18.0285 5.91266C18.0288 5.91224 18.029 5.91202 18.0292 5.9116L19.3098 2.81923C19.4792 2.41003 19.2849 1.94106 18.8759 1.77174ZM9.99073 1.60348C12.5705 1.60348 15.0981 2.05929 17.5161 2.95981L16.8484 4.57184C14.6443 3.75962 12.3419 3.34838 9.99212 3.34838C7.65147 3.34838 5.35465 3.75973 3.15254 4.57162L2.484 2.95895C4.90076 2.05908 7.42217 1.60348 9.99073 1.60348ZM9.99982 21.1035L3.7671 6.05505C5.77316 5.32323 7.86313 4.95186 9.99201 4.95186C12.13 4.95186 14.2257 5.32355 16.2337 6.05548L9.99982 21.1035Z" fill="#333333"/>
</svg>
