<svg width="16" height="24" viewBox="0 0 16 24" fill="none" xmlns="http://www.w3.org/2000/svg">
<path d="M15.5 0.75C15.5 0.336 15.161 -0.00899979 14.753 0.0525002C12.1985 0.438 10.343 3.0705 10.253 12.7455C10.253 12.9439 10.3316 13.1342 10.4716 13.2748C10.6117 13.4153 10.8016 13.4947 11 13.4955C11.84 13.5105 12.5 13.6905 12.5 15V23.25C12.5 23.4489 12.5791 23.6397 12.7197 23.7803C12.8604 23.921 13.0511 24 13.25 24H14.75C14.949 24 15.1397 23.921 15.2804 23.7803C15.421 23.6397 15.5 23.4489 15.5 23.25V0.75ZM2.37504 2.14764e-07C2.4745 2.14764e-07 2.56988 0.039509 2.64021 0.109835C2.71053 0.180161 2.75004 0.275544 2.75004 0.375V8.058C2.74885 8.10892 2.76793 8.15823 2.80309 8.19508C2.83826 8.23193 2.88662 8.25331 2.93754 8.2545C2.98846 8.25569 3.03777 8.23661 3.07462 8.20145C3.11147 8.16628 3.13285 8.11792 3.13404 8.067L3.48354 0.357C3.48818 0.260437 3.52993 0.169396 3.60008 0.102877C3.67024 0.0363584 3.76337 -0.000497857 3.86004 2.14764e-07H4.64304C4.73946 -0.000110916 4.83221 0.0369176 4.90204 0.103397C4.97187 0.169876 5.01341 0.260697 5.01804 0.357L5.36754 8.067C5.36873 8.11792 5.39011 8.16628 5.42696 8.20145C5.46381 8.23661 5.51312 8.25569 5.56404 8.2545C5.61496 8.25331 5.66332 8.23193 5.69849 8.19508C5.73365 8.15823 5.75273 8.10892 5.75154 8.058V0.375C5.75154 0.275803 5.79084 0.180647 5.86084 0.110364C5.93085 0.0400809 6.02585 0.000397002 6.12504 2.14764e-07H6.56004C6.74799 8.77533e-05 6.92905 0.0707374 7.06739 0.197964C7.20573 0.32519 7.29125 0.499718 7.30704 0.687L7.94154 8.292C7.98684 8.83356 7.8569 9.37533 7.57089 9.83743C7.28488 10.2995 6.85794 10.6575 6.35304 10.8585L6.27354 10.8915C6.00978 10.9962 5.78472 11.1798 5.62904 11.417C5.47335 11.6543 5.39461 11.9338 5.40354 12.2175L5.70504 22.5C5.70504 22.8863 5.55159 23.2568 5.27844 23.5299C5.0053 23.803 4.63483 23.9565 4.24854 23.9565C3.86225 23.9565 3.49179 23.803 3.21864 23.5299C2.94549 23.2568 2.79204 22.8863 2.79204 22.5L3.09504 12.2175C3.10397 11.9338 3.02523 11.6543 2.86955 11.417C2.71386 11.1798 2.4888 10.9962 2.22504 10.8915L2.14554 10.8585C1.64038 10.6574 1.21325 10.2992 0.92722 9.83682C0.641189 9.37442 0.51141 8.8323 0.557041 8.2905L1.19304 0.687C1.20883 0.499718 1.29436 0.32519 1.43269 0.197964C1.57103 0.0707374 1.75209 8.77533e-05 1.94004 2.14764e-07H2.37504Z" fill="#333333" fill-opacity="0.5"/>
</svg>
